<mxfile host="Electron" agent="Mozilla/5.0 (Windows NT 10.0; Win64; x64) AppleWebKit/537.36 (KHTML, like Gecko) draw.io/26.0.16 Chrome/132.0.6834.196 Electron/34.2.0 Safari/537.36" version="26.0.16">
  <diagram name="第 1 页" id="ncxG6-4y2VSN7gctxNUI">
    <mxGraphModel dx="1167" dy="706" grid="1" gridSize="10" guides="1" tooltips="1" connect="1" arrows="1" fold="1" page="1" pageScale="1" pageWidth="827" pageHeight="1169" math="0" shadow="0">
      <root>
        <mxCell id="0" />
        <mxCell id="1" parent="0" />
        <mxCell id="wA4OrrFVm6eSg571w4lY-30" style="edgeStyle=orthogonalEdgeStyle;rounded=0;orthogonalLoop=1;jettySize=auto;html=1;exitX=0.5;exitY=1;exitDx=0;exitDy=0;entryX=0.5;entryY=0;entryDx=0;entryDy=0;" edge="1" parent="1" source="wA4OrrFVm6eSg571w4lY-31" target="wA4OrrFVm6eSg571w4lY-36">
          <mxGeometry relative="1" as="geometry" />
        </mxCell>
        <mxCell id="wA4OrrFVm6eSg571w4lY-31" value="系统配置" style="rounded=0;whiteSpace=wrap;html=1;" vertex="1" parent="1">
          <mxGeometry x="320" y="215" width="100" height="40" as="geometry" />
        </mxCell>
        <mxCell id="wA4OrrFVm6eSg571w4lY-32" style="edgeStyle=orthogonalEdgeStyle;rounded=0;orthogonalLoop=1;jettySize=auto;html=1;exitX=1;exitY=0.5;exitDx=0;exitDy=0;" edge="1" parent="1" source="wA4OrrFVm6eSg571w4lY-36">
          <mxGeometry relative="1" as="geometry">
            <mxPoint x="480" y="314" as="targetPoint" />
          </mxGeometry>
        </mxCell>
        <mxCell id="wA4OrrFVm6eSg571w4lY-33" value="否" style="edgeLabel;html=1;align=center;verticalAlign=middle;resizable=0;points=[];" vertex="1" connectable="0" parent="wA4OrrFVm6eSg571w4lY-32">
          <mxGeometry x="-0.1684" relative="1" as="geometry">
            <mxPoint y="-10" as="offset" />
          </mxGeometry>
        </mxCell>
        <mxCell id="wA4OrrFVm6eSg571w4lY-34" style="edgeStyle=orthogonalEdgeStyle;rounded=0;orthogonalLoop=1;jettySize=auto;html=1;exitX=0.5;exitY=1;exitDx=0;exitDy=0;entryX=0.5;entryY=0;entryDx=0;entryDy=0;" edge="1" parent="1" source="wA4OrrFVm6eSg571w4lY-36" target="wA4OrrFVm6eSg571w4lY-38">
          <mxGeometry relative="1" as="geometry" />
        </mxCell>
        <mxCell id="wA4OrrFVm6eSg571w4lY-35" value="是" style="edgeLabel;html=1;align=center;verticalAlign=middle;resizable=0;points=[];" vertex="1" connectable="0" parent="wA4OrrFVm6eSg571w4lY-34">
          <mxGeometry x="-0.2667" y="1" relative="1" as="geometry">
            <mxPoint x="6" as="offset" />
          </mxGeometry>
        </mxCell>
        <mxCell id="wA4OrrFVm6eSg571w4lY-36" value="是否为主节点" style="rhombus;whiteSpace=wrap;html=1;" vertex="1" parent="1">
          <mxGeometry x="310" y="284" width="120" height="60" as="geometry" />
        </mxCell>
        <mxCell id="wA4OrrFVm6eSg571w4lY-37" style="edgeStyle=orthogonalEdgeStyle;rounded=0;orthogonalLoop=1;jettySize=auto;html=1;exitX=0.5;exitY=1;exitDx=0;exitDy=0;entryX=0.5;entryY=0;entryDx=0;entryDy=0;" edge="1" parent="1" source="wA4OrrFVm6eSg571w4lY-38" target="wA4OrrFVm6eSg571w4lY-54">
          <mxGeometry relative="1" as="geometry">
            <Array as="points">
              <mxPoint x="370" y="450" />
              <mxPoint x="451" y="450" />
            </Array>
          </mxGeometry>
        </mxCell>
        <mxCell id="wA4OrrFVm6eSg571w4lY-38" value="&lt;div&gt;- 创建工作目录&lt;/div&gt;- 文件拷贝&lt;div&gt;- 远程执行程序&lt;/div&gt;" style="rounded=0;whiteSpace=wrap;html=1;align=left;" vertex="1" parent="1">
          <mxGeometry x="320" y="374" width="100" height="46" as="geometry" />
        </mxCell>
        <mxCell id="wA4OrrFVm6eSg571w4lY-39" style="edgeStyle=orthogonalEdgeStyle;rounded=0;orthogonalLoop=1;jettySize=auto;html=1;exitX=0.5;exitY=1;exitDx=0;exitDy=0;entryX=0.5;entryY=0;entryDx=0;entryDy=0;" edge="1" parent="1" source="wA4OrrFVm6eSg571w4lY-40" target="wA4OrrFVm6eSg571w4lY-54">
          <mxGeometry relative="1" as="geometry">
            <Array as="points">
              <mxPoint x="530" y="450" />
              <mxPoint x="451" y="450" />
            </Array>
          </mxGeometry>
        </mxCell>
        <mxCell id="wA4OrrFVm6eSg571w4lY-40" value="运行参数获取" style="rounded=0;whiteSpace=wrap;html=1;" vertex="1" parent="1">
          <mxGeometry x="480" y="294" width="100" height="40" as="geometry" />
        </mxCell>
        <mxCell id="wA4OrrFVm6eSg571w4lY-41" value="" style="endArrow=classic;html=1;rounded=0;" edge="1" parent="1">
          <mxGeometry width="50" height="50" relative="1" as="geometry">
            <mxPoint x="340" y="183" as="sourcePoint" />
            <mxPoint x="350" y="215" as="targetPoint" />
          </mxGeometry>
        </mxCell>
        <mxCell id="wA4OrrFVm6eSg571w4lY-42" value="" style="endArrow=classic;html=1;rounded=0;entryX=0.75;entryY=0;entryDx=0;entryDy=0;" edge="1" parent="1">
          <mxGeometry width="50" height="50" relative="1" as="geometry">
            <mxPoint x="400" y="183" as="sourcePoint" />
            <mxPoint x="390" y="215" as="targetPoint" />
          </mxGeometry>
        </mxCell>
        <mxCell id="wA4OrrFVm6eSg571w4lY-43" value="远程执行" style="text;html=1;align=center;verticalAlign=middle;resizable=0;points=[];autosize=1;strokeColor=none;fillColor=none;" vertex="1" parent="1">
          <mxGeometry x="370" y="153" width="70" height="30" as="geometry" />
        </mxCell>
        <mxCell id="wA4OrrFVm6eSg571w4lY-44" value="本地执行" style="text;html=1;align=center;verticalAlign=middle;resizable=0;points=[];autosize=1;strokeColor=none;fillColor=none;" vertex="1" parent="1">
          <mxGeometry x="300" y="153" width="70" height="30" as="geometry" />
        </mxCell>
        <mxCell id="wA4OrrFVm6eSg571w4lY-45" style="edgeStyle=orthogonalEdgeStyle;rounded=0;orthogonalLoop=1;jettySize=auto;html=1;exitX=0;exitY=0.5;exitDx=0;exitDy=0;entryX=0.5;entryY=-0.013;entryDx=0;entryDy=0;entryPerimeter=0;" edge="1" parent="1" source="wA4OrrFVm6eSg571w4lY-38" target="wA4OrrFVm6eSg571w4lY-43">
          <mxGeometry relative="1" as="geometry" />
        </mxCell>
        <mxCell id="wA4OrrFVm6eSg571w4lY-46" style="edgeStyle=orthogonalEdgeStyle;rounded=0;orthogonalLoop=1;jettySize=auto;html=1;exitX=0.5;exitY=1;exitDx=0;exitDy=0;entryX=0.5;entryY=0;entryDx=0;entryDy=0;" edge="1" parent="1" source="wA4OrrFVm6eSg571w4lY-47" target="wA4OrrFVm6eSg571w4lY-51">
          <mxGeometry relative="1" as="geometry" />
        </mxCell>
        <mxCell id="wA4OrrFVm6eSg571w4lY-47" value="内存管理器初始化" style="rounded=0;whiteSpace=wrap;html=1;" vertex="1" parent="1">
          <mxGeometry x="401" y="545" width="100" height="40" as="geometry" />
        </mxCell>
        <mxCell id="wA4OrrFVm6eSg571w4lY-48" style="edgeStyle=orthogonalEdgeStyle;rounded=0;orthogonalLoop=1;jettySize=auto;html=1;exitX=0.5;exitY=1;exitDx=0;exitDy=0;entryX=0.5;entryY=0;entryDx=0;entryDy=0;" edge="1" parent="1" source="wA4OrrFVm6eSg571w4lY-49" target="wA4OrrFVm6eSg571w4lY-57">
          <mxGeometry relative="1" as="geometry" />
        </mxCell>
        <mxCell id="wA4OrrFVm6eSg571w4lY-49" value="同步变量初始化" style="rounded=0;whiteSpace=wrap;html=1;" vertex="1" parent="1">
          <mxGeometry x="401" y="685" width="100" height="40" as="geometry" />
        </mxCell>
        <mxCell id="wA4OrrFVm6eSg571w4lY-50" style="edgeStyle=orthogonalEdgeStyle;rounded=0;orthogonalLoop=1;jettySize=auto;html=1;exitX=0.5;exitY=1;exitDx=0;exitDy=0;entryX=0.5;entryY=0;entryDx=0;entryDy=0;" edge="1" parent="1" source="wA4OrrFVm6eSg571w4lY-51" target="wA4OrrFVm6eSg571w4lY-49">
          <mxGeometry relative="1" as="geometry" />
        </mxCell>
        <mxCell id="wA4OrrFVm6eSg571w4lY-51" value="SIGSEGV 信号&lt;div&gt;处理程序注册&lt;/div&gt;" style="rounded=0;whiteSpace=wrap;html=1;" vertex="1" parent="1">
          <mxGeometry x="401" y="615" width="100" height="40" as="geometry" />
        </mxCell>
        <mxCell id="wA4OrrFVm6eSg571w4lY-52" value="消息缓冲初始化" style="rounded=0;whiteSpace=wrap;html=1;" vertex="1" parent="1">
          <mxGeometry x="470" y="930" width="100" height="40" as="geometry" />
        </mxCell>
        <mxCell id="wA4OrrFVm6eSg571w4lY-53" style="edgeStyle=orthogonalEdgeStyle;rounded=0;orthogonalLoop=1;jettySize=auto;html=1;exitX=0.5;exitY=1;exitDx=0;exitDy=0;entryX=0.5;entryY=0;entryDx=0;entryDy=0;" edge="1" parent="1" source="wA4OrrFVm6eSg571w4lY-54" target="wA4OrrFVm6eSg571w4lY-47">
          <mxGeometry relative="1" as="geometry" />
        </mxCell>
        <mxCell id="wA4OrrFVm6eSg571w4lY-54" value="启用日志" style="rounded=0;whiteSpace=wrap;html=1;" vertex="1" parent="1">
          <mxGeometry x="401" y="475" width="100" height="40" as="geometry" />
        </mxCell>
        <mxCell id="wA4OrrFVm6eSg571w4lY-55" style="edgeStyle=orthogonalEdgeStyle;rounded=0;orthogonalLoop=1;jettySize=auto;html=1;exitX=0.5;exitY=1;exitDx=0;exitDy=0;" edge="1" parent="1" source="wA4OrrFVm6eSg571w4lY-57">
          <mxGeometry relative="1" as="geometry">
            <mxPoint x="450.3333333333335" y="850" as="targetPoint" />
          </mxGeometry>
        </mxCell>
        <mxCell id="wA4OrrFVm6eSg571w4lY-56" style="edgeStyle=orthogonalEdgeStyle;rounded=0;orthogonalLoop=1;jettySize=auto;html=1;exitX=1;exitY=0.5;exitDx=0;exitDy=0;" edge="1" parent="1" source="wA4OrrFVm6eSg571w4lY-57">
          <mxGeometry relative="1" as="geometry">
            <mxPoint x="550" y="790" as="targetPoint" />
          </mxGeometry>
        </mxCell>
        <mxCell id="wA4OrrFVm6eSg571w4lY-57" value="通信栈选择" style="rhombus;whiteSpace=wrap;html=1;" vertex="1" parent="1">
          <mxGeometry x="391" y="759" width="120" height="60" as="geometry" />
        </mxCell>
        <mxCell id="wA4OrrFVm6eSg571w4lY-58" value="rdma" style="text;html=1;align=center;verticalAlign=middle;resizable=0;points=[];autosize=1;strokeColor=none;fillColor=none;" vertex="1" parent="1">
          <mxGeometry x="500" y="765" width="50" height="30" as="geometry" />
        </mxCell>
        <mxCell id="wA4OrrFVm6eSg571w4lY-59" value="udp" style="text;html=1;align=center;verticalAlign=middle;resizable=0;points=[];autosize=1;strokeColor=none;fillColor=none;" vertex="1" parent="1">
          <mxGeometry x="416" y="815" width="40" height="30" as="geometry" />
        </mxCell>
        <mxCell id="wA4OrrFVm6eSg571w4lY-60" style="edgeStyle=orthogonalEdgeStyle;rounded=0;orthogonalLoop=1;jettySize=auto;html=1;exitX=0.5;exitY=1;exitDx=0;exitDy=0;entryX=0.5;entryY=0;entryDx=0;entryDy=0;" edge="1" parent="1" source="wA4OrrFVm6eSg571w4lY-61" target="wA4OrrFVm6eSg571w4lY-52">
          <mxGeometry relative="1" as="geometry">
            <Array as="points">
              <mxPoint x="600" y="910" />
              <mxPoint x="520" y="910" />
            </Array>
          </mxGeometry>
        </mxCell>
        <mxCell id="wA4OrrFVm6eSg571w4lY-61" value="RDMA 通信栈&lt;div&gt;初始化&lt;/div&gt;" style="rounded=0;whiteSpace=wrap;html=1;" vertex="1" parent="1">
          <mxGeometry x="550" y="769" width="100" height="40" as="geometry" />
        </mxCell>
        <mxCell id="wA4OrrFVm6eSg571w4lY-62" style="edgeStyle=orthogonalEdgeStyle;rounded=0;orthogonalLoop=1;jettySize=auto;html=1;exitX=0.5;exitY=1;exitDx=0;exitDy=0;entryX=0.5;entryY=0;entryDx=0;entryDy=0;" edge="1" parent="1" source="wA4OrrFVm6eSg571w4lY-63" target="wA4OrrFVm6eSg571w4lY-52">
          <mxGeometry relative="1" as="geometry" />
        </mxCell>
        <mxCell id="wA4OrrFVm6eSg571w4lY-63" value="UDP 通信栈&lt;div&gt;初始化&lt;/div&gt;" style="rounded=0;whiteSpace=wrap;html=1;" vertex="1" parent="1">
          <mxGeometry x="401" y="850" width="100" height="40" as="geometry" />
        </mxCell>
      </root>
    </mxGraphModel>
  </diagram>
</mxfile>
